<?xml version="1.0" encoding="utf-8"?>
<!-- Svg Vector Icons : http://www.onlinewebfonts.com/icon -->
<!DOCTYPE svg PUBLIC "-//W3C//DTD SVG 1.1//EN" "http://www.w3.org/Graphics/SVG/1.1/DTD/svg11.dtd">
<svg version="1.1" xmlns="http://www.w3.org/2000/svg" xmlns:xlink="http://www.w3.org/1999/xlink" x="0px" y="0px" viewBox="0 0 1000 1000" enable-background="new 0 0 1000 1000" xml:space="preserve">
<metadata> Svg Vector Icons : http://www.onlinewebfonts.com/icon </metadata>
<g><path d="M252.7,369.5L500,122.7l247.3,246.8c18.2,18.2,47.8,18.2,66.1,0c9.1-9.1,13.7-21.1,13.7-33c0-11.9-4.6-23.9-13.7-33L533,23.7C523.9,14.6,512,10,500,10c-12,0-23.9,4.6-33,13.7L186.7,303.5c-9.1,9.1-13.7,21.1-13.7,33c0,11.9,4.6,23.9,13.7,33C204.9,387.7,234.5,387.7,252.7,369.5z" fill="#AAA"/></g>
<g><path d="M747.3,630.5L500,877.3L252.7,630.5c-18.3-18.2-47.8-18.2-66.1,0c-9.1,9.1-13.7,21.1-13.7,33c0,11.9,4.6,23.9,13.7,33L467,976.3c9.1,9.1,21.1,13.7,33,13.7c12,0,23.9-4.6,33-13.7l280.3-279.8c9.1-9.1,13.7-21.1,13.7-33c0-11.9-4.6-23.9-13.7-33C795.1,612.3,765.5,612.3,747.3,630.5z" fill="#333"/></g>

</svg>
